<?xml version="1.0" standalone="no"?>
<!DOCTYPE svg PUBLIC "-//W3C//DTD SVG 20010904//EN"
 "http://www.w3.org/TR/2001/REC-SVG-20010904/DTD/svg10.dtd">
<svg version="1.0" xmlns="http://www.w3.org/2000/svg"
 width="1582.000000pt" height="975.000000pt" viewBox="0 0 1582.000000 975.000000"
 preserveAspectRatio="xMidYMid meet">

<g transform="translate(0.000000,975.000000) scale(0.100000,-0.100000)"
fill="#000000" stroke="none">
<path d="M12120 9650 c0 -5 5 -10 11 -10 5 0 7 5 4 10 -3 6 -8 10 -11 10 -2 0
-4 -4 -4 -10z"/>
<path d="M12060 9594 c0 -8 5 -12 10 -9 6 4 8 11 5 16 -9 14 -15 11 -15 -7z"/>
<path d="M12408 9483 c7 -3 16 -2 19 1 4 3 -2 6 -13 5 -11 0 -14 -3 -6 -6z"/>
<path d="M12715 9430 c3 -5 8 -10 11 -10 2 0 4 5 4 10 0 6 -5 10 -11 10 -5 0
-7 -4 -4 -10z"/>
<path d="M12015 9398 c-91 -23 -363 -127 -421 -161 -11 -6 -37 -18 -57 -26
-20 -8 -37 -18 -37 -23 0 -4 -12 -8 -26 -8 -14 0 -31 -6 -38 -12 -7 -7 -39
-35 -70 -63 -91 -79 -128 -117 -142 -152 -8 -17 -18 -34 -24 -38 -5 -3 -10
-14 -10 -25 0 -10 -7 -20 -15 -24 -8 -3 -15 -13 -15 -23 -1 -10 -14 -29 -30
-43 -30 -24 -30 -25 -30 -126 0 -78 4 -106 15 -118 8 -8 15 -25 15 -39 0 -16
18 -42 56 -78 30 -30 60 -64 65 -76 7 -19 16 -23 49 -23 29 0 40 -4 40 -15 0
-8 5 -15 10 -15 10 0 50 -36 50 -46 0 -7 74 -74 83 -74 4 0 7 -6 7 -14 0 -8 7
-16 15 -20 8 -3 15 -16 15 -30 0 -13 7 -26 15 -30 10 -4 15 -19 15 -49 0 -27
6 -49 15 -57 9 -7 15 -29 15 -51 0 -22 5 -39 10 -39 6 0 13 -7 17 -16 3 -9 40
-62 82 -119 42 -56 89 -122 105 -145 16 -23 86 -87 155 -143 97 -77 129 -108
138 -136 16 -45 9 -78 -25 -115 -20 -21 -22 -26 -7 -17 35 19 55 38 55 52 1
17 35 59 48 59 15 0 24 -52 16 -86 -4 -16 -18 -39 -31 -51 -12 -12 -23 -34
-23 -48 0 -14 -5 -25 -10 -25 -6 0 -21 -10 -33 -23 -12 -13 -30 -26 -39 -30
-10 -3 -18 -11 -18 -17 0 -5 -6 -10 -14 -10 -8 0 -23 -13 -33 -30 -9 -16 -25
-30 -34 -30 -25 0 -113 -41 -122 -56 -5 -8 -25 -14 -47 -14 -22 0 -40 -4 -40
-8 0 -5 -28 -21 -61 -37 -34 -15 -64 -35 -66 -44 -2 -9 -14 -21 -25 -26 -11
-6 -20 -13 -19 -17 0 -5 1 -43 2 -85 1 -78 6 -76 24 11 8 38 11 32 19 -41 7
-63 7 -63 -19 -63 -15 0 -25 -6 -25 -15 0 -9 6 -12 15 -9 25 10 16 -10 -13
-28 -15 -10 -56 -38 -92 -64 -53 -37 -59 -45 -35 -39 17 3 37 13 46 21 8 8 21
14 27 14 7 0 12 7 12 15 0 9 9 15 25 15 23 0 71 23 85 41 3 3 17 9 32 13 15 3
46 24 68 45 24 23 48 37 58 35 20 -5 44 12 61 44 6 12 18 22 27 22 8 0 19 11
24 25 5 14 14 25 19 25 5 0 13 9 16 20 4 14 15 20 35 20 20 0 37 10 59 38 41
48 45 52 81 82 17 14 39 33 50 43 11 9 25 17 30 17 6 0 10 11 10 24 0 19 7 26
30 31 17 4 30 11 30 16 0 5 7 9 15 9 28 0 15 -41 -18 -53 -9 -4 -22 -18 -27
-32 -5 -14 -14 -25 -20 -25 -5 0 -10 -7 -10 -15 0 -8 -6 -15 -14 -15 -8 0 -16
-10 -20 -23 -3 -12 -16 -33 -28 -47 -21 -22 -48 -66 -48 -77 0 -12 26 16 77
85 31 42 67 88 80 102 13 14 33 39 45 55 35 50 87 90 100 77 12 -12 10 -18
-27 -82 -15 -26 0 -45 15 -20 4 6 18 17 31 24 14 6 25 22 27 36 2 14 10 39 18
57 8 17 14 46 14 65 0 18 7 46 15 62 8 15 15 36 15 45 0 9 7 25 15 35 8 11 15
30 15 42 0 12 7 27 15 34 8 7 15 18 15 24 0 23 123 135 178 163 54 27 60 28
198 25 137 -2 144 -3 170 -27 15 -14 35 -25 46 -25 10 0 21 -6 24 -14 3 -8 19
-18 35 -21 16 -4 29 -10 29 -15 0 -5 14 -11 30 -15 17 -4 30 -11 30 -16 0 -5
12 -14 26 -19 14 -6 28 -19 31 -30 3 -11 12 -20 20 -20 7 0 22 -14 31 -30 9
-17 25 -33 34 -36 29 -9 89 -76 95 -105 3 -15 11 -30 19 -33 8 -3 14 -16 14
-30 0 -13 7 -26 15 -30 8 -3 15 -13 15 -22 0 -9 11 -27 25 -40 14 -13 25 -30
25 -38 0 -8 6 -21 13 -28 19 -22 47 -78 47 -96 0 -9 7 -29 14 -44 8 -15 18
-53 22 -85 4 -32 11 -61 17 -65 11 -7 12 -472 1 -490 -3 -5 -14 0 -23 11 -15
17 -19 48 -25 163 -4 82 -13 162 -22 188 -24 72 -48 120 -59 116 -11 -3 -7
-138 5 -146 4 -3 10 -63 13 -133 3 -71 10 -134 15 -140 5 -7 13 -41 16 -77 4
-36 11 -69 15 -75 5 -5 11 -54 14 -109 4 -54 11 -113 16 -130 27 -87 48 -370
50 -673 1 -99 5 -173 11 -175 5 -1 12 -52 16 -113 5 -70 12 -115 21 -123 7 -7
13 -23 13 -35 0 -12 7 -31 15 -41 15 -19 15 -19 15 3 0 12 -7 52 -15 89 -18
84 -35 241 -35 328 0 37 -4 117 -10 178 -12 133 -29 465 -37 705 -5 154 -4
175 11 183 14 8 16 36 16 228 0 241 -1 236 63 269 30 16 67 48 67 59 0 4 10
19 23 32 12 14 31 43 42 65 11 22 26 45 34 51 10 8 13 37 13 116 -1 110 -22
189 -61 233 -36 40 -34 67 9 115 44 49 48 71 28 145 -14 53 -25 57 -33 12 -4
-19 -16 -46 -28 -60 -21 -26 -23 -26 -54 -11 -17 9 -38 30 -47 47 -10 21 -16
26 -16 14 0 -10 -6 -20 -14 -23 -8 -3 -17 -16 -20 -29 -3 -13 -15 -27 -26 -30
-18 -6 -32 5 -78 60 -5 6 -12 29 -16 50 -5 22 -13 43 -18 46 -6 4 -8 15 -3 25
5 13 9 15 12 7 9 -25 31 -12 37 21 4 21 13 36 25 39 21 5 41 -9 41 -30 0 -7 7
-13 15 -13 8 0 15 -7 15 -15 0 -29 19 -14 30 23 5 20 19 51 30 67 15 22 20 47
20 94 0 55 -5 71 -31 113 -17 26 -37 48 -45 48 -8 0 -14 3 -14 8 0 8 -71 49
-78 44 -3 -1 -4 -38 -3 -81 2 -72 0 -80 -21 -95 -25 -18 -64 -21 -73 -6 -3 6
-17 10 -30 10 -12 0 -25 7 -29 15 -3 8 -10 15 -16 15 -6 0 -28 18 -49 40 -21
22 -46 40 -55 40 -24 0 -56 18 -56 32 0 6 -8 20 -17 31 -16 17 -18 45 -15 319
2 251 0 306 -13 331 -8 17 -15 45 -15 63 0 18 -5 45 -11 61 -6 15 -15 50 -20
77 -5 28 -13 52 -17 55 -5 4 -13 22 -19 41 -9 30 -11 31 -12 10 -1 -26 20 -94
32 -106 4 -4 7 -20 7 -36 0 -15 5 -28 10 -28 18 0 11 -39 -9 -50 -30 -16 -45
-12 -77 18 -16 16 -47 39 -69 52 -38 23 -68 47 -122 98 -13 12 -30 22 -37 22
-7 0 -28 14 -46 30 -18 17 -42 30 -53 30 -10 0 -31 8 -45 19 -15 10 -64 37
-108 60 -77 40 -104 59 -181 131 -18 16 -34 30 -37 30 -2 0 -23 18 -46 40 -23
22 -53 43 -66 46 -13 3 -24 12 -24 20 0 8 -10 14 -24 14 -13 0 -40 7 -59 15
-42 17 -216 19 -282 3z m385 -128 c0 -6 8 -14 17 -17 31 -12 53 -37 53 -60 0
-12 5 -25 11 -29 8 -4 8 -9 0 -17 -29 -29 9 -99 50 -95 16 2 24 -3 27 -16 3
-16 0 -18 -23 -12 -31 8 -65 -19 -65 -52 0 -10 -13 -38 -30 -60 -16 -23 -30
-46 -30 -52 0 -5 -6 -10 -14 -10 -8 0 -16 -7 -20 -15 -3 -9 -18 -15 -36 -15
-20 0 -30 -5 -30 -15 0 -9 -9 -15 -25 -15 -14 0 -25 5 -25 10 0 6 9 10 19 10
11 0 39 20 63 45 24 24 49 45 56 45 6 0 12 9 12 20 0 11 4 20 9 20 5 0 12 18
16 40 4 25 12 40 21 40 8 0 14 7 14 15 0 8 -7 15 -15 15 -12 0 -15 13 -15 59
0 43 -4 60 -15 65 -8 3 -15 16 -15 30 0 13 -7 26 -15 30 -17 6 -21 46 -5 46 6
0 10 -5 10 -10z m-710 -74 c0 -8 -10 -18 -22 -22 -22 -6 -108 -62 -118 -76
-10 -13 -90 -21 -90 -9 0 6 10 11 23 11 42 0 67 12 67 31 0 13 9 21 29 25 17
4 31 14 34 24 3 12 17 20 38 23 19 2 35 5 37 5 1 1 2 -4 2 -12z m662 -82 c4
-27 4 -73 1 -101 -4 -45 -12 -59 -45 -93 -38 -38 -114 -80 -144 -80 -8 0 -23
-5 -34 -12 -15 -10 -32 -10 -78 0 -32 7 -77 12 -100 12 -29 0 -45 5 -48 15 -4
8 -15 15 -26 15 -11 0 -32 6 -46 14 -48 26 -112 46 -145 46 -17 0 -42 3 -54 6
-22 6 -22 7 10 30 17 13 48 31 67 39 19 8 48 22 63 30 16 8 36 15 46 15 9 0
21 4 27 9 15 15 210 62 329 81 33 5 80 13 105 18 25 5 50 8 55 7 6 -1 13 -24
17 -51z m258 -34 c0 -33 -3 -35 -31 -20 -22 12 -25 36 -6 43 28 12 37 6 37
-23z m10 -86 c0 -17 -6 -28 -20 -31 -11 -3 -20 -9 -20 -14 0 -5 -6 -9 -14 -9
-12 0 -12 6 1 40 19 48 53 57 53 14z m167 -110 c59 -30 112 -59 118 -65 5 -5
16 -9 25 -9 8 0 34 -16 58 -36 33 -28 41 -42 37 -58 -5 -15 -4 -17 3 -7 15 20
41 7 112 -59 36 -33 79 -70 95 -81 17 -12 44 -38 60 -57 l30 -35 0 -141 c0
-147 -21 -362 -38 -384 -12 -16 -63 -39 -105 -47 -37 -8 -61 12 -62 50 0 12
-5 26 -10 31 -6 6 -14 42 -19 81 -5 38 -14 79 -20 91 -6 11 -11 32 -11 45 0
14 -7 38 -15 53 -8 16 -15 37 -15 47 0 9 -4 17 -9 17 -6 0 -13 20 -17 45 -3
25 -10 45 -15 45 -5 0 -9 8 -9 18 0 10 -16 49 -35 86 -19 38 -35 74 -35 80 0
6 -11 23 -25 38 -14 15 -25 32 -25 38 0 11 -65 76 -105 103 -14 11 -30 29 -35
40 -5 12 -9 16 -9 10 -1 -20 -26 -15 -49 10 -19 20 -20 26 -9 65 6 23 14 42
18 42 4 0 56 -25 116 -56z m-1224 29 c-7 -2 -13 -9 -13 -14 0 -5 -12 -22 -27
-38 -32 -32 -51 -59 -59 -83 -4 -10 -11 -18 -16 -18 -5 0 -14 -13 -19 -30 -6
-16 -15 -30 -20 -30 -5 0 -9 -9 -9 -19 0 -11 -7 -26 -15 -35 -8 -8 -15 -19
-15 -24 0 -6 -7 -12 -15 -16 -8 -3 -15 -12 -15 -19 0 -7 -12 -20 -27 -28 -15
-8 -38 -24 -51 -36 -20 -18 -27 -20 -43 -10 -24 15 -24 18 1 45 22 23 26 42
10 42 -5 0 -10 -7 -10 -15 0 -8 -7 -15 -15 -15 -8 0 -15 -4 -15 -10 0 -20 -20
-9 -26 14 -11 47 50 137 119 172 15 8 27 19 27 24 0 6 7 10 15 10 8 0 15 4 15
9 0 5 9 12 19 16 11 3 34 19 53 35 18 16 49 37 68 47 19 10 37 21 38 26 2 4
16 7 30 6 15 0 21 -3 15 -6z m7 -138 c0 -14 -4 -25 -10 -25 -5 0 -10 11 -10
25 0 14 5 25 10 25 6 0 10 -11 10 -25z m-60 -85 c0 -11 -4 -20 -10 -20 -5 0
-10 9 -10 20 0 11 5 20 10 20 6 0 10 -9 10 -20z m307 -1 c9 -9 -3 -21 -45 -48
-32 -20 -74 -45 -95 -55 -20 -11 -37 -23 -37 -28 0 -4 -7 -8 -15 -8 -9 0 -15
9 -15 25 0 14 4 25 9 25 5 0 12 12 15 26 4 15 15 37 24 50 15 20 26 23 83 24
36 0 70 -5 76 -11z m770 -40 c60 -27 141 -112 149 -155 3 -18 12 -35 20 -38 8
-3 14 -12 14 -21 0 -8 4 -23 9 -33 23 -42 41 -86 41 -101 1 -9 9 -34 20 -56
11 -22 19 -48 20 -57 0 -9 4 -19 9 -22 4 -3 11 -40 13 -81 3 -42 10 -81 17
-88 6 -6 11 -24 11 -40 0 -16 6 -43 14 -60 8 -18 19 -55 26 -83 10 -46 9 -54
-12 -95 -21 -40 -27 -44 -63 -47 -22 -2 -44 -8 -49 -13 -6 -5 -17 -9 -25 -9
-23 0 -140 -60 -169 -87 -14 -13 -28 -23 -33 -23 -4 0 -10 -9 -14 -19 -3 -10
-17 -22 -30 -25 -18 -5 -25 -13 -25 -30 0 -14 -6 -31 -13 -38 -7 -7 -16 -21
-20 -30 -3 -10 -11 -18 -17 -18 -5 0 -10 -16 -10 -35 0 -68 -50 -134 -101
-135 -45 0 -138 57 -139 85 0 6 -12 23 -27 40 -27 28 -44 53 -59 85 -10 19
-165 170 -176 170 -4 0 -8 6 -8 13 0 7 -10 17 -22 22 -13 6 -27 19 -32 31 -5
11 -18 25 -29 30 -11 5 -25 18 -31 29 -6 11 -17 24 -23 28 -7 4 -13 12 -13 18
0 5 -13 28 -30 51 -16 22 -30 51 -30 64 0 13 -4 26 -10 29 -5 3 -10 21 -10 40
0 31 3 34 40 40 22 4 40 11 40 16 0 5 -4 9 -8 9 -5 0 -14 11 -20 24 -9 19 -8
27 4 37 11 9 24 8 61 -6 33 -13 48 -15 51 -7 2 7 21 12 42 12 43 0 60 -18 60
-64 0 -14 5 -26 10 -26 11 0 14 49 4 74 -3 9 -10 13 -15 10 -5 -3 -9 5 -9 17
0 28 -37 69 -61 69 -10 0 -22 6 -26 14 -4 8 -31 18 -58 21 -46 6 -53 4 -84
-24 -52 -47 -94 -40 -134 21 -21 33 -22 57 -3 64 8 3 13 20 12 44 -1 40 25 80
50 80 8 0 42 17 77 39 35 21 74 42 88 46 13 4 31 13 39 20 8 6 44 21 80 33 36
12 96 32 135 46 38 14 113 32 165 41 52 9 103 20 112 26 10 5 24 9 32 9 8 0
19 6 23 14 17 30 89 33 150 5z m-1107 -14 c0 -14 -4 -25 -10 -25 -5 0 -10 11
-10 25 0 14 5 25 10 25 6 0 10 -11 10 -25z m90 -5 c0 -11 -4 -20 -10 -20 -5 0
-10 9 -10 20 0 11 5 20 10 20 6 0 10 -9 10 -20z m-142 -57 c-4 -39 -28 -42
-28 -4 0 21 5 31 16 31 11 0 14 -8 12 -27z m86 -61 c-4 -12 -12 -22 -19 -22
-7 0 -15 -7 -19 -15 -6 -17 -36 -21 -36 -5 0 6 3 10 8 10 4 0 18 16 31 35 25
37 45 36 35 -3z m-204 -66 c0 -3 -4 -8 -10 -11 -5 -3 -10 -1 -10 4 0 6 5 11
10 11 6 0 10 -2 10 -4z m2494 -572 c17 -44 -2 -104 -33 -104 -36 0 -37 62 -2
101 20 22 27 23 35 3z m-399 -55 c25 -23 45 -45 45 -50 0 -17 48 -59 69 -59
19 0 21 5 19 41 -2 27 2 43 10 46 7 3 12 -4 12 -15 0 -12 8 -28 17 -38 12 -11
19 -38 21 -80 3 -35 8 -64 12 -64 5 0 12 -15 15 -32 4 -18 11 -37 15 -43 4 -5
11 -25 15 -42 3 -18 11 -33 16 -33 5 0 9 -13 9 -30 0 -34 -7 -38 -25 -13 -13
18 -35 10 -35 -13 0 -8 -10 -14 -25 -14 -15 0 -25 6 -25 14 0 8 -7 16 -15 20
-8 3 -15 14 -15 24 0 11 -7 25 -15 32 -8 7 -15 23 -15 36 0 24 -38 106 -52
112 -4 2 -8 12 -8 22 0 10 -6 25 -12 32 -15 17 -34 45 -50 76 -6 13 -20 22
-33 22 -27 0 -38 31 -25 66 13 33 23 30 75 -17z m-175 -225 c0 -16 -41 -5 -57
15 -7 9 -13 30 -13 46 l0 30 35 -39 c19 -22 35 -45 35 -52z m107 61 c8 -9 13
-19 10 -22 -6 -5 -37 21 -37 31 0 10 11 6 27 -9z m43 -45 c0 -5 -5 -10 -11
-10 -5 0 -7 5 -4 10 3 6 8 10 11 10 2 0 4 -4 4 -10z m60 -111 c0 -13 -7 -19
-24 -19 -19 0 -22 4 -19 24 4 17 10 22 24 19 10 -3 19 -14 19 -24z m61 -90
c22 -23 39 -45 39 -50 0 -5 4 -9 10 -9 5 0 12 -11 16 -25 7 -29 34 -34 34 -6
0 11 5 23 10 26 6 4 10 -10 10 -35 0 -33 4 -43 20 -47 11 -3 20 -9 20 -14 0
-5 16 -9 35 -9 28 0 44 -10 88 -52 30 -29 62 -65 72 -80 9 -15 21 -25 26 -22
11 6 12 64 1 64 -11 0 -42 55 -42 74 0 24 52 20 83 -7 15 -12 27 -28 27 -34 0
-6 6 -18 14 -26 8 -7 19 -30 24 -49 8 -30 6 -42 -9 -68 -15 -24 -17 -35 -9
-45 7 -8 7 -16 2 -19 -6 -3 -13 -22 -16 -41 -4 -19 -10 -35 -15 -35 -13 0 -81
-65 -81 -78 0 -6 -11 -12 -25 -12 -18 0 -25 5 -25 19 0 11 6 21 13 24 22 7 10
120 -18 173 -14 26 -25 52 -25 59 0 6 -17 30 -38 53 -28 30 -44 40 -59 36 -16
-5 -21 0 -26 23 -4 18 -15 34 -31 41 -14 6 -26 16 -26 22 0 5 -6 10 -13 10
-17 0 -107 84 -107 99 0 6 -6 11 -13 11 -13 0 -39 55 -29 64 12 12 26 4 63
-35z m394 -9 c-3 -5 -10 -10 -16 -10 -5 0 -9 5 -9 10 0 6 7 10 16 10 8 0 12
-4 9 -10z m-65 -30 c0 -5 -4 -10 -10 -10 -5 0 -10 5 -10 10 0 6 5 10 10 10 6
0 10 -4 10 -10z m-113 -260 c3 -16 9 -30 14 -30 5 0 9 -6 9 -14 0 -8 6 -21 13
-28 17 -16 27 -74 20 -111 -8 -41 -20 -32 -26 21 -6 48 -28 104 -54 134 -9 10
-12 25 -8 37 9 30 25 26 32 -9z m-1556 -17 c-5 -10 -20 -40 -33 -68 -30 -64
-96 -145 -119 -145 -12 0 -49 -38 -49 -50 0 -5 -4 -10 -10 -10 -5 0 -10 -7
-10 -15 0 -8 -7 -15 -15 -15 -8 0 -15 -6 -15 -14 0 -19 -45 -47 -64 -40 -20 8
-29 35 -16 48 5 5 10 21 10 35 0 27 26 61 47 61 7 0 13 4 13 10 0 18 65 77 93
83 15 4 27 12 27 17 0 6 7 10 15 10 8 0 15 7 15 15 0 8 5 15 10 15 15 0 50 38
50 53 0 20 10 27 37 27 19 0 21 -3 14 -17z m-380 -324 c-4 -82 -17 -108 -69
-133 -26 -13 -36 -14 -52 -4 -20 13 -28 38 -12 38 4 0 20 26 34 58 15 31 38
66 52 76 15 10 26 25 26 33 0 8 6 13 13 10 8 -3 11 -25 8 -78z"/>
<path d="M13122 8272 c-16 -10 -32 -66 -32 -110 0 -49 40 -86 83 -77 54 12 77
41 77 97 0 40 -5 53 -26 73 -27 25 -76 33 -102 17z"/>
<path d="M12383 8552 c-18 -9 -33 -20 -33 -24 0 -14 38 -8 54 7 8 8 19 15 25
15 6 0 11 5 11 10 0 14 -20 11 -57 -8z"/>
<path d="M12296 8494 c-9 -8 -16 -19 -16 -23 0 -4 -20 -18 -45 -30 -46 -23
-71 -53 -60 -72 4 -5 16 -7 28 -3 24 7 87 69 87 84 0 6 7 10 15 10 12 0 35 28
35 44 0 12 -29 5 -44 -10z"/>
<path d="M12500 8430 c-51 -9 -116 -35 -125 -50 -3 -5 -15 -10 -26 -10 -11 0
-36 -17 -54 -37 -29 -32 -35 -45 -35 -85 0 -48 13 -71 24 -42 3 9 6 28 6 44 0
20 6 29 21 33 39 10 86 -4 108 -34 27 -36 63 -38 85 -4 26 40 20 54 -24 61
-22 4 -40 9 -40 13 1 13 48 51 64 51 9 0 21 -11 26 -25 11 -30 34 -25 67 14
28 32 29 57 4 71 -22 11 -36 11 -101 0z"/>
<path d="M11660 8269 c0 -30 20 -42 74 -47 60 -5 68 3 34 32 -28 24 -108 35
-108 15z"/>
<path d="M12240 7940 c0 -5 5 -12 10 -15 6 -3 10 -26 10 -49 0 -35 -4 -45 -20
-49 -24 -6 -27 -45 -4 -54 10 -4 29 9 55 34 34 34 38 44 33 71 -6 30 -27 51
-66 65 -10 3 -18 2 -18 -3z"/>
<path d="M12026 7877 c-10 -76 0 -124 27 -131 12 -3 26 -1 32 5 6 6 2 12 -13
15 -20 6 -22 13 -22 73 0 88 -15 111 -24 38z"/>
<path d="M12548 7795 c-10 -13 -18 -26 -18 -29 0 -4 -16 -21 -35 -39 -33 -31
-39 -33 -93 -29 -51 4 -66 0 -117 -27 -32 -17 -67 -31 -78 -31 -11 0 -37 -5
-58 -12 -31 -9 -39 -16 -39 -35 0 -12 3 -23 8 -23 11 0 82 -66 82 -77 0 -5 17
-26 37 -46 32 -33 42 -37 87 -37 55 1 121 31 140 64 6 10 21 30 32 43 21 23
45 84 59 151 4 18 13 45 21 60 15 29 17 51 8 76 -8 22 -16 20 -36 -9z m-88
-160 c0 -8 -4 -15 -10 -15 -5 0 -10 -6 -10 -13 0 -12 -34 -47 -46 -47 -3 0
-12 -7 -20 -15 -9 -8 -24 -15 -35 -15 -10 0 -19 -4 -19 -10 0 -15 -36 -12 -50
4 -21 26 -8 60 25 66 35 8 77 30 88 48 12 18 77 16 77 -3z"/>
<path d="M11565 9389 c-10 -15 3 -25 16 -12 7 7 7 13 1 17 -6 3 -14 1 -17 -5z"/>
<path d="M11593 7074 c-3 -9 -1 -19 5 -23 17 -10 2 -51 -18 -51 -14 0 -21 -13
-30 -47 -13 -57 -14 -61 -12 -93 2 -22 4 -21 23 15 20 37 42 61 80 89 9 6 19
21 23 34 6 19 4 25 -14 29 -17 5 -21 12 -18 34 4 23 1 29 -14 29 -10 0 -21 -7
-25 -16z"/>
<path d="M12335 6950 c-3 -5 -1 -10 4 -10 6 0 11 5 11 10 0 6 -2 10 -4 10 -3
0 -8 -4 -11 -10z"/>
<path d="M11745 6449 c-11 -4 -31 -8 -44 -8 -20 -1 -71 -41 -71 -56 0 -15 -38
-45 -56 -45 -12 0 -24 -7 -28 -15 -3 -8 -17 -15 -31 -15 -14 0 -25 -4 -25 -9
0 -5 -13 -12 -30 -16 -16 -4 -30 -10 -30 -15 0 -4 -12 -11 -26 -14 -14 -4 -36
-18 -48 -31 -13 -14 -27 -25 -32 -25 -12 0 -84 -70 -84 -81 0 -31 88 21 101
60 3 7 23 16 44 20 31 5 41 11 43 28 3 17 12 24 40 29 20 3 42 12 47 19 6 6
27 18 48 24 21 7 41 19 44 27 3 8 17 14 32 14 27 0 56 16 109 62 44 37 42 65
-3 47z"/>
<path d="M9466 6325 c-3 -8 -13 -15 -23 -15 -20 0 -63 -46 -63 -69 0 -9 -7
-25 -15 -35 -10 -13 -15 -44 -15 -94 0 -68 2 -76 29 -102 15 -16 31 -43 35
-61 17 -87 3 -99 -122 -100 -185 -1 -295 -21 -340 -62 -11 -10 -27 -41 -36
-70 -14 -46 -15 -58 -3 -97 17 -53 52 -142 72 -185 8 -16 19 -49 25 -71 6 -23
17 -47 25 -54 8 -7 20 -30 25 -51 8 -27 22 -46 51 -66 23 -15 59 -43 80 -62
37 -31 42 -33 92 -27 28 4 126 7 216 7 156 0 169 2 243 29 77 28 80 28 135 14
45 -12 68 -12 112 -3 31 6 67 13 79 15 19 4 22 7 12 19 -8 10 -10 30 -6 57 4
24 9 92 12 151 5 99 8 109 27 117 15 6 17 9 6 9 -8 1 -26 12 -38 25 -16 17
-38 25 -82 30 -58 7 -62 10 -132 79 -102 102 -138 145 -172 211 -16 32 -41 70
-54 85 -14 14 -44 52 -68 85 l-43 58 0 102 c0 125 -5 146 -35 146 -13 0 -25
-7 -29 -15z m21 -417 c-3 -8 -6 -5 -6 6 -1 11 2 17 5 13 3 -3 4 -12 1 -19z
m243 -163 c0 -14 -4 -25 -10 -25 -5 0 -10 11 -10 25 0 14 5 25 10 25 6 0 10
-11 10 -25z m215 -545 c-3 -5 -10 -10 -16 -10 -5 0 -9 5 -9 10 0 6 7 10 16 10
8 0 12 -4 9 -10z"/>
<path d="M11167 6233 c-23 -43 -21 -51 4 -19 11 14 19 32 16 39 -2 6 -11 -2
-20 -20z"/>
<path d="M12578 6203 c-19 -65 -6 -113 38 -148 19 -15 34 -33 34 -41 0 -8 4
-14 10 -14 5 0 12 -11 16 -25 3 -14 10 -25 15 -25 5 0 9 -12 9 -26 0 -14 6
-35 12 -47 12 -21 20 -60 50 -234 6 -40 15 -73 20 -73 4 0 8 -10 8 -22 0 -43
11 -64 40 -75 24 -9 28 -17 32 -59 4 -51 -3 -64 -38 -64 -11 0 -50 -20 -87
-45 -37 -25 -71 -45 -76 -45 -5 0 -12 -7 -15 -16 -3 -8 -10 -13 -15 -10 -5 3
-11 -4 -15 -17 -5 -19 -8 -20 -17 -7 -9 13 -10 13 -6 -2 6 -17 -29 -65 -44
-61 -5 2 -9 -3 -9 -10 0 -6 -13 -26 -29 -43 -33 -35 -95 -132 -142 -219 -17
-33 -36 -63 -42 -66 -5 -4 -7 -11 -3 -17 3 -5 -3 -20 -13 -33 -10 -13 -22 -39
-25 -56 -7 -32 -21 -43 -28 -23 -2 6 -2 -18 0 -52 2 -35 3 -75 4 -90 1 -17 -8
-35 -25 -50 -31 -27 -67 -125 -60 -162 4 -18 12 -26 25 -26 21 0 57 -36 58
-57 0 -7 -8 -20 -18 -30 -11 -10 -22 -26 -25 -35 -7 -20 7 -25 96 -31 33 -2
62 -8 65 -14 4 -6 17 -13 29 -17 13 -4 40 -24 62 -44 21 -20 47 -42 57 -48 10
-6 22 -19 28 -30 6 -10 20 -28 31 -40 26 -26 65 -98 65 -118 0 -9 4 -16 9 -16
5 0 12 -13 16 -30 4 -16 10 -30 15 -30 4 0 11 -20 14 -45 4 -25 11 -45 16 -45
5 0 12 -17 15 -37 4 -21 12 -49 18 -62 16 -32 17 -392 1 -412 -6 -8 -14 -34
-17 -59 -3 -24 -11 -46 -16 -48 -6 -2 -11 -17 -11 -33 0 -17 -6 -32 -15 -35
-9 -4 -15 -19 -15 -39 0 -19 -6 -40 -14 -47 -7 -8 -17 -24 -20 -36 -4 -12 -11
-22 -16 -22 -4 0 -11 -8 -14 -17 -12 -34 -32 -62 -74 -102 -23 -23 -42 -43
-42 -46 0 -7 -38 -45 -45 -45 -9 0 -45 -40 -45 -50 0 -5 -7 -10 -15 -10 -8 0
-15 -4 -15 -8 0 -5 -24 -21 -52 -36 -29 -14 -71 -37 -93 -51 -22 -13 -85 -38
-140 -56 -55 -18 -101 -36 -103 -41 -2 -4 -22 -8 -45 -8 -23 -1 -60 -7 -82
-15 -22 -8 -60 -15 -85 -15 -25 -1 -63 -7 -85 -15 -49 -18 -536 -22 -581 -5
-14 6 -90 15 -168 20 -184 12 -329 27 -391 39 -73 15 -170 31 -250 41 -38 5
-90 14 -115 19 -25 6 -74 15 -110 21 -123 20 -205 37 -233 49 -33 13 -136 15
-121 3 5 -5 61 -19 124 -32 63 -12 120 -26 125 -30 6 -4 24 -10 40 -13 17 -2
98 -17 180 -32 83 -16 193 -32 245 -36 52 -4 118 -12 145 -18 56 -12 196 -37
295 -53 36 -5 252 -11 480 -13 434 -4 458 -2 542 41 14 8 46 14 70 14 24 0 53
7 64 15 10 8 31 15 47 15 17 0 27 5 27 15 0 10 10 15 29 15 16 0 31 6 35 15 3
8 15 15 26 15 11 0 33 8 48 18 15 10 54 36 87 58 77 51 170 138 261 245 95
112 127 174 190 369 29 88 34 120 34 197 0 117 -28 258 -94 478 -45 149 -56
192 -56 221 0 16 -7 38 -15 48 -11 14 -15 47 -15 113 0 102 4 111 94 219 16
19 26 37 23 41 -9 9 -107 -96 -107 -115 0 -20 -34 -52 -55 -52 -17 0 -94 51
-95 63 0 10 -38 47 -48 47 -16 0 -42 36 -42 57 0 27 27 76 63 116 15 18 27 41
27 53 0 21 -3 22 -60 17 -69 -7 -74 0 -34 53 25 32 30 34 85 34 60 0 82 -12
53 -28 -9 -5 -14 -14 -10 -21 14 -22 166 98 242 191 15 19 24 57 14 63 -4 3
-27 -2 -50 -10 -54 -19 -84 -19 -100 0 -11 13 -10 21 1 43 20 38 46 62 68 62
10 0 32 5 49 11 44 15 76 -3 67 -39 -4 -15 -11 -28 -16 -30 -14 -5 -11 -32 4
-32 19 0 34 13 41 38 4 12 11 22 16 22 5 0 11 14 15 30 4 17 13 30 21 30 8 0
14 6 14 12 0 20 49 -38 56 -66 3 -14 10 -26 14 -26 4 0 11 -16 14 -35 4 -19
11 -35 16 -35 6 0 10 -11 10 -25 0 -14 7 -28 15 -31 22 -9 20 -71 -4 -83 -32
-18 -91 -74 -91 -88 0 -7 -6 -13 -13 -13 -8 0 -19 -10 -25 -22 -19 -38 -36
-62 -52 -75 -12 -10 -12 -12 -1 -13 7 0 23 10 35 23 12 13 29 26 39 30 9 3 17
13 17 21 0 9 11 23 25 32 14 9 25 22 25 28 0 6 14 20 30 29 17 10 30 22 30 28
0 31 54 -14 64 -55 3 -14 11 -26 16 -26 6 0 10 -6 10 -13 0 -8 9 -24 20 -37
11 -13 20 -29 20 -37 0 -12 34 -53 45 -53 12 0 4 49 -10 60 -8 7 -15 18 -15
26 0 7 -20 52 -45 98 -25 47 -45 95 -45 106 0 11 -7 23 -15 26 -8 4 -15 18
-15 34 0 16 -7 30 -15 34 -8 3 -15 16 -15 30 0 13 -7 26 -15 30 -8 3 -15 15
-15 26 0 12 -7 28 -15 36 -8 9 -15 24 -15 35 0 10 -4 19 -10 19 -5 0 -10 11
-10 24 0 14 -6 31 -13 38 -8 7 -16 34 -20 59 -3 24 -13 58 -21 74 -9 17 -16
43 -16 58 0 16 -7 35 -15 43 -9 10 -15 34 -15 64 0 27 -5 50 -11 52 -6 2 -13
35 -16 73 -3 39 -10 72 -14 75 -5 3 -11 38 -15 78 -4 40 -10 72 -15 72 -4 0
-10 19 -14 43 -4 23 -14 51 -21 62 -8 11 -14 32 -14 47 0 16 -4 28 -9 28 -5 0
-12 14 -16 30 -4 17 -11 30 -16 30 -5 0 -9 6 -9 14 0 8 -6 21 -14 28 -7 8 -17
29 -21 46 -3 18 -10 32 -15 32 -5 0 -11 14 -15 30 -4 17 -10 30 -15 30 -4 0
-11 11 -14 25 -10 38 -23 30 -38 -22z m272 -918 c0 -43 -11 -58 -25 -34 -9 14
4 79 15 79 6 0 10 -20 10 -45z m-146 -121 c9 -24 -4 -84 -23 -106 -18 -21 -90
-25 -109 -6 -18 18 -16 78 3 78 8 0 15 5 15 11 0 35 102 55 114 23z m-234
-325 c17 -31 -15 -69 -60 -69 -15 0 -31 -5 -37 -11 -8 -8 -14 -6 -21 8 -9 16
-4 26 23 56 39 42 78 49 95 16z m-120 -419 c0 -10 7 -23 16 -28 10 -6 14 -19
12 -38 -2 -24 -7 -29 -28 -26 -34 4 -57 30 -65 75 l-7 37 36 0 c29 0 36 -4 36
-20z m150 -164 c0 -6 14 -20 30 -29 17 -10 30 -25 30 -33 0 -8 4 -14 9 -14 5
0 12 -13 16 -29 3 -16 12 -32 20 -35 8 -3 11 -13 8 -25 -5 -21 -23 -29 -23
-11 0 6 -7 10 -15 10 -8 0 -15 5 -15 10 0 6 -6 10 -13 10 -8 0 -22 9 -33 20
-10 11 -31 32 -46 47 -26 24 -39 79 -23 95 10 9 55 -4 55 -16z"/>
<path d="M12230 4925 c-7 -9 -10 -18 -7 -21 3 -3 10 4 17 15 13 25 8 27 -10 6z"/>
<path d="M10742 4902 c-49 -3 -51 -4 -35 -20 13 -14 42 -18 142 -22 127 -6
155 1 127 28 -14 14 -129 21 -234 14z"/>
<path d="M8858 4863 c18 -2 45 -2 60 0 15 2 0 4 -33 4 -33 0 -45 -2 -27 -4z"/>
<path d="M8633 4833 c9 -2 23 -2 30 0 6 3 -1 5 -18 5 -16 0 -22 -2 -12 -5z"/>
<path d="M12111 4684 c0 -11 3 -14 6 -6 3 7 2 16 -1 19 -3 4 -6 -2 -5 -13z"/>
<path d="M13865 4645 c4 -27 11 -58 16 -67 5 -9 9 -39 9 -67 0 -39 -5 -53 -20
-64 -18 -13 -19 -18 -9 -69 9 -42 17 -59 35 -69 13 -7 26 -20 30 -31 3 -10 9
-18 14 -18 4 0 10 -36 12 -80 2 -48 8 -84 15 -88 7 -4 15 -27 19 -50 4 -23 10
-42 15 -42 5 0 9 -11 9 -24 0 -14 7 -31 15 -40 8 -8 15 -29 15 -46 0 -18 6
-33 15 -36 9 -4 15 -19 15 -35 0 -16 5 -29 10 -29 14 0 12 19 -9 86 -45 143
-135 500 -146 574 -3 25 -15 86 -27 135 -23 102 -44 139 -33 60z"/>
<path d="M12039 4543 c-13 -16 -12 -17 4 -4 16 13 21 21 13 21 -2 0 -10 -8
-17 -17z"/>
<path d="M12830 4509 c0 -11 5 -17 10 -14 6 3 10 13 10 21 0 8 -4 14 -10 14
-5 0 -10 -9 -10 -21z"/>
<path d="M13247 4488 c-12 -43 -7 -116 8 -132 8 -8 15 -30 15 -48 0 -18 7 -46
15 -62 8 -16 15 -54 15 -87 0 -33 7 -76 15 -96 10 -23 15 -68 15 -127 0 -61 5
-98 14 -111 7 -11 16 -37 20 -57 4 -21 11 -38 16 -38 6 0 10 -12 10 -26 0 -14
9 -37 20 -51 11 -14 20 -34 20 -44 0 -11 5 -19 10 -19 6 0 10 -9 10 -19 0 -29
11 -52 21 -45 11 7 0 76 -13 85 -5 3 -12 25 -15 48 -3 22 -10 41 -14 41 -5 0
-9 16 -9 36 0 20 -6 50 -14 67 -19 46 -36 123 -45 213 -5 43 -14 92 -20 107
-6 16 -11 52 -11 82 0 38 -4 54 -15 59 -11 4 -15 22 -15 75 0 52 -4 70 -15 75
-9 3 -15 18 -15 38 0 45 -15 68 -23 36z"/>
<path d="M12016 4485 c-9 -26 -7 -32 5 -12 6 10 9 21 6 23 -2 3 -7 -2 -11 -11z"/>
<path d="M11941 4444 c0 -11 3 -14 6 -6 3 7 2 16 -1 19 -3 4 -6 -2 -5 -13z"/>
<path d="M11980 4445 c0 -8 2 -15 4 -15 2 0 6 7 10 15 3 8 1 15 -4 15 -6 0
-10 -7 -10 -15z"/>
<path d="M12021 4424 c0 -11 3 -14 6 -6 3 7 2 16 -1 19 -3 4 -6 -2 -5 -13z"/>
<path d="M11955 4290 c2 -27 15 -38 15 -12 0 11 -4 23 -8 26 -5 3 -8 -4 -7
-14z"/>
<path d="M12153 4250 c0 -16 4 -27 9 -24 4 3 8 14 8 24 0 10 -4 21 -8 24 -5 3
-9 -8 -9 -24z"/>
<path d="M12031 4244 c0 -11 3 -14 6 -6 3 7 2 16 -1 19 -3 4 -6 -2 -5 -13z"/>
<path d="M11990 4200 c-9 -6 -10 -10 -3 -10 6 0 15 5 18 10 8 12 4 12 -15 0z"/>
<path d="M12100 4193 c0 -10 5 -25 10 -33 8 -12 10 -9 10 12 0 15 -4 30 -10
33 -5 3 -10 -2 -10 -12z"/>
<path d="M12135 4200 c3 -5 8 -10 11 -10 2 0 4 5 4 10 0 6 -5 10 -11 10 -5 0
-7 -4 -4 -10z"/>
<path d="M12160 4190 c0 -5 11 -10 25 -10 14 0 25 5 25 10 0 6 -11 10 -25 10
-14 0 -25 -4 -25 -10z"/>
<path d="M12030 4150 c0 -5 5 -10 11 -10 5 0 7 5 4 10 -3 6 -8 10 -11 10 -2 0
-4 -4 -4 -10z"/>
<path d="M11976 4142 c-3 -5 1 -9 9 -9 8 0 15 4 15 9 0 4 -4 8 -9 8 -6 0 -12
-4 -15 -8z"/>
<path d="M11866 4113 c-6 -14 -5 -15 5 -6 7 7 10 15 7 18 -3 3 -9 -2 -12 -12z"/>
<path d="M11135 3821 c-29 -7 -30 -7 -8 -19 12 -7 30 -12 41 -12 11 0 22 -9
25 -20 7 -26 60 -29 55 -3 -2 9 -14 20 -28 23 -14 3 -25 12 -25 20 0 17 -18
20 -60 11z"/>
<path d="M14101 3735 c0 -16 6 -39 14 -49 8 -11 15 -32 15 -46 0 -14 7 -35 15
-46 8 -10 15 -38 15 -61 0 -23 7 -48 15 -57 8 -8 15 -25 15 -38 0 -13 7 -32
15 -42 8 -11 15 -37 15 -58 0 -21 7 -55 15 -75 8 -19 15 -47 15 -62 1 -14 7
-37 15 -51 8 -14 14 -37 15 -52 0 -15 5 -30 10 -33 6 -4 10 15 10 49 0 31 -4
56 -10 56 -5 0 -10 19 -10 43 0 23 -7 56 -17 72 -9 18 -17 58 -18 100 -1 40
-7 71 -14 73 -6 2 -11 24 -11 48 0 30 -5 46 -15 50 -9 4 -15 19 -15 39 0 18
-7 38 -15 45 -8 7 -15 18 -15 26 0 7 -6 19 -14 26 -7 8 -20 27 -29 43 l-16 30
0 -30z"/>
<path d="M11280 3731 c0 -22 42 -36 68 -22 14 8 11 12 -20 25 -47 20 -48 20
-48 -3z"/>
<path d="M9463 3723 c32 -2 81 -2 110 0 29 2 3 3 -58 3 -60 0 -84 -1 -52 -3z"/>
<path d="M13486 3511 c-10 -16 3 -73 15 -65 11 7 12 45 0 63 -6 9 -10 10 -15
2z"/>
<path d="M13522 3400 c0 -14 2 -19 5 -12 2 6 2 18 0 25 -3 6 -5 1 -5 -13z"/>
<path d="M13551 3334 c0 -11 3 -14 6 -6 3 7 2 16 -1 19 -3 4 -6 -2 -5 -13z"/>
<path d="M13581 3274 c0 -11 3 -14 6 -6 3 7 2 16 -1 19 -3 4 -6 -2 -5 -13z"/>
<path d="M7760 3265 c0 -11 5 -27 10 -35 8 -12 10 -12 10 5 0 11 -5 27 -10 35
-8 12 -10 12 -10 -5z"/>
<path d="M13606 3221 c-4 -7 -5 -15 -2 -18 9 -9 19 4 14 18 -4 11 -6 11 -12 0z"/>
<path d="M7780 3191 c0 -6 5 -13 10 -16 6 -3 10 1 10 9 0 9 -4 16 -10 16 -5 0
-10 -4 -10 -9z"/>
<path d="M13637 3174 c-13 -13 -7 -54 8 -60 8 -4 15 -17 15 -30 0 -14 7 -27
15 -30 8 -4 15 -17 15 -29 0 -13 5 -27 10 -30 6 -4 10 10 10 34 0 23 -4 41
-10 41 -5 0 -13 12 -16 28 -4 15 -12 34 -19 42 -7 8 -14 21 -16 28 -3 7 -8 10
-12 6z"/>
<path d="M14309 3018 c-4 -41 5 -125 14 -137 6 -7 14 -46 17 -87 7 -105 24
-98 28 11 2 68 -1 92 -11 100 -8 5 -17 36 -21 68 -4 31 -12 57 -17 57 -5 0
-10 -6 -10 -12z"/>
<path d="M13720 2966 c0 -14 5 -28 10 -31 6 -4 10 7 10 24 0 17 -4 31 -10 31
-5 0 -10 -11 -10 -24z"/>
<path d="M13750 2905 c0 -14 5 -25 10 -25 6 0 10 11 10 25 0 14 -4 25 -10 25
-5 0 -10 -11 -10 -25z"/>
<path d="M13815 2800 c3 -5 8 -10 11 -10 2 0 4 5 4 10 0 6 -5 10 -11 10 -5 0
-7 -4 -4 -10z"/>
<path d="M8445 2740 c28 -12 47 -12 40 0 -3 6 -18 10 -33 9 -24 0 -25 -1 -7
-9z"/>
<path d="M13840 2725 c0 -16 6 -25 15 -25 10 0 15 -10 15 -29 0 -16 7 -34 15
-41 8 -7 15 -21 15 -31 0 -11 4 -19 9 -19 5 0 13 -9 16 -20 9 -30 25 -24 25 9
0 16 -6 31 -15 35 -8 3 -15 12 -15 21 0 8 -4 15 -8 15 -5 0 -19 25 -33 55 -26
59 -39 69 -39 30z"/>
<path d="M8500 2721 c0 -6 64 -26 215 -67 152 -40 231 -53 350 -59 81 -3 158
-13 204 -25 80 -21 156 -26 166 -11 3 6 -11 13 -32 16 -21 4 -51 10 -68 15
-16 5 -57 9 -90 9 -33 1 -88 8 -123 16 -35 8 -85 15 -112 15 -27 0 -85 6 -127
14 -293 54 -296 55 -302 64 -8 11 -81 23 -81 13z"/>
<path d="M14370 2616 c0 -55 5 -94 15 -112 8 -16 15 -47 15 -70 0 -22 7 -49
15 -60 8 -10 15 -32 15 -49 0 -16 7 -41 15 -55 8 -14 14 -37 15 -51 0 -24 -3
-26 -87 -38 -136 -19 -243 -24 -243 -12 0 6 -7 11 -15 11 -10 0 -15 10 -15 34
0 69 -18 44 -22 -30 -2 -41 -8 -78 -13 -82 -6 -4 -18 -22 -28 -40 -17 -31 -18
-35 -3 -51 9 -10 16 -27 16 -39 0 -11 5 -24 10 -27 15 -9 12 -57 -5 -79 -8
-11 -15 -30 -15 -43 0 -13 -4 -23 -10 -23 -5 0 -10 -13 -10 -30 0 -16 4 -30 9
-30 5 0 11 -23 13 -52 3 -29 11 -54 17 -56 6 -2 11 -8 11 -14 0 -12 85 -96
116 -115 59 -37 185 -83 226 -83 13 0 32 -6 43 -14 11 -7 37 -16 58 -20 20 -4
37 -11 37 -16 0 -6 9 -10 19 -10 11 0 26 -7 35 -15 8 -8 23 -15 33 -15 10 0
27 -6 38 -14 11 -7 45 -16 75 -18 30 -3 56 -11 58 -17 4 -13 62 -15 62 -2 0 5
14 12 30 16 27 6 30 11 30 44 0 34 -25 71 -48 71 -4 0 -13 13 -19 29 -8 24 -8
34 4 50 17 26 36 26 88 1 22 -11 46 -19 53 -20 6 0 12 -4 12 -10 0 -5 7 -10
15 -10 9 0 18 -6 21 -14 3 -8 16 -17 30 -20 13 -4 24 -11 24 -16 0 -6 5 -10
10 -10 6 0 18 -8 28 -17 10 -10 29 -25 42 -33 12 -8 28 -21 36 -27 7 -7 17
-13 22 -13 6 0 12 -7 16 -15 3 -8 12 -15 19 -15 8 0 20 -6 26 -14 6 -7 36 -16
67 -19 31 -3 62 -11 67 -16 7 -7 58 -11 123 -11 87 0 114 3 124 15 7 8 16 15
21 15 15 0 57 50 76 89 3 7 1 21 -5 30 -7 9 -15 23 -19 31 -4 8 -17 24 -30 36
-13 12 -23 25 -23 30 0 5 -14 15 -31 23 -18 8 -34 22 -36 32 -3 11 -9 19 -13
19 -13 0 -40 60 -47 103 -6 39 -32 77 -53 77 -5 0 -10 4 -10 10 0 5 -11 12
-24 16 -14 3 -27 12 -30 20 -3 8 -16 14 -30 14 -13 0 -26 7 -30 15 -4 12 -34
15 -183 13 -98 -1 -184 1 -191 6 -6 4 -12 15 -12 26 0 21 -19 30 -67 30 -19 0
-41 7 -49 15 -9 8 -25 15 -38 15 -12 0 -31 7 -42 15 -10 8 -31 15 -46 15 -16
0 -28 4 -28 9 0 5 -10 11 -23 15 -30 7 -117 93 -142 139 -11 20 -25 37 -32 37
-7 0 -13 7 -13 15 0 8 -4 15 -10 15 -5 0 -10 7 -10 15 0 8 -9 23 -20 32 -15
13 -20 30 -20 64 0 27 -5 49 -12 51 -6 2 -13 30 -16 61 -2 32 -8 60 -13 63 -5
3 -9 20 -9 38 0 20 -8 40 -20 51 -17 15 -20 31 -20 97 0 45 -4 78 -10 78 -6 0
-10 -35 -10 -84z m128 -492 c16 -5 22 -14 22 -35 0 -37 -12 -43 -55 -25 -65
28 -38 79 33 60z m-348 -104 c0 -5 -2 -10 -4 -10 -3 0 -8 5 -11 10 -3 6 -1 10
4 10 6 0 11 -4 11 -10z m390 -32 c0 -4 15 -8 34 -8 35 0 66 -21 66 -44 0 -16
-111 -38 -124 -25 -6 5 -23 9 -40 9 -35 0 -105 30 -106 46 0 6 15 16 33 21 38
12 137 13 137 1z m270 -195 c0 -5 -11 -15 -23 -24 -20 -15 -25 -15 -42 -2 -17
12 -18 15 -5 23 18 12 70 13 70 3z m134 -2 c7 -11 -22 -23 -35 -15 -5 3 -7 10
-4 15 8 12 32 12 39 0z m756 -391 c0 -5 -4 -10 -10 -10 -5 0 -10 5 -10 10 0 6
5 10 10 10 6 0 10 -4 10 -10z"/>
<path d="M6718 2563 c7 -3 16 -2 19 1 4 3 -2 6 -13 5 -11 0 -14 -3 -6 -6z"/>
<path d="M9598 2538 c7 -7 28 -13 47 -13 43 0 32 10 -20 20 -33 5 -38 4 -27
-7z"/>
<path d="M13960 2496 c0 -20 5 -36 10 -36 6 0 10 13 10 29 0 17 -4 33 -10 36
-6 4 -10 -8 -10 -29z"/>
<path d="M13990 2425 c0 -14 5 -25 10 -25 6 0 10 11 10 25 0 14 -4 25 -10 25
-5 0 -10 -11 -10 -25z"/>
<path d="M14020 2366 c0 -14 5 -26 10 -26 6 0 10 9 10 19 0 11 -4 23 -10 26
-6 4 -10 -5 -10 -19z"/>
<path d="M14050 2301 c0 -12 5 -21 10 -21 6 0 10 6 10 14 0 8 -4 18 -10 21 -5
3 -10 -3 -10 -14z"/>
<path d="M5630 941 c0 -51 24 -66 52 -32 23 29 23 47 1 54 -10 2 -26 8 -35 12
-16 6 -18 1 -18 -34z"/>
</g>
</svg>
